<?xml version="1.0" encoding="UTF-8"?>
<!DOCTYPE svg PUBLIC "-//W3C//DTD SVG 1.1//EN" "http://www.w3.org/Graphics/SVG/1.1/DTD/svg11.dtd">
<svg xmlns="http://www.w3.org/2000/svg" version="1.1" width="159px" height="52px" style="shape-rendering:geometricPrecision; text-rendering:geometricPrecision; image-rendering:optimizeQuality; fill-rule:evenodd; clip-rule:evenodd" xmlns:xlink="http://www.w3.org/1999/xlink">
<g><path style="opacity:0.992" fill="#88a2d9" d="M 42.5,5.5 C 30.8333,5.5 19.1667,5.5 7.5,5.5C 8.347,4.03374 9.68034,3.20041 11.5,3C 20.5,2.33333 29.5,2.33333 38.5,3C 40.3197,3.20041 41.653,4.03374 42.5,5.5 Z"/></g>
<g><path style="opacity:1" fill="#94b7f9" d="M 7.5,5.5 C 19.1667,5.5 30.8333,5.5 42.5,5.5C 43.5,5.83333 44.1667,6.5 44.5,7.5C 31.5,7.5 18.5,7.5 5.5,7.5C 5.83333,6.5 6.5,5.83333 7.5,5.5 Z"/></g>
<g><path style="opacity:1" fill="#90b6fe" d="M 5.5,7.5 C 18.5,7.5 31.5,7.5 44.5,7.5C 38.3693,8.82996 31.8693,9.49663 25,9.5C 18.3245,9.4996 11.8245,9.16626 5.5,8.5C 5.5,8.16667 5.5,7.83333 5.5,7.5 Z"/></g>
<g><path style="opacity:0.996" fill="#86aef5" d="M 44.5,7.5 C 45.404,8.20895 45.7373,9.20895 45.5,10.5C 31.8333,10.5 18.1667,10.5 4.5,10.5C 4.32842,9.50838 4.66175,8.84171 5.5,8.5C 11.8245,9.16626 18.3245,9.4996 25,9.5C 31.8693,9.49663 38.3693,8.82996 44.5,7.5 Z"/></g>
<g><path style="opacity:0.995" fill="#86b1fe" d="M 4.5,10.5 C 18.1667,10.5 31.8333,10.5 45.5,10.5C 45.5,11.1667 45.5,11.8333 45.5,12.5C 31.8333,12.5 18.1667,12.5 4.5,12.5C 4.5,11.8333 4.5,11.1667 4.5,10.5 Z"/></g>
<g><path style="opacity:1" fill="#7eaefd" d="M 4.5,12.5 C 18.1667,12.5 31.8333,12.5 45.5,12.5C 32.2076,14.4819 18.5409,15.1486 4.5,14.5C 4.5,13.8333 4.5,13.1667 4.5,12.5 Z"/></g>
<g><path style="opacity:1" fill="#6b96df" d="M 45.5,10.5 C 46.8333,19.5 46.8333,28.5 45.5,37.5C 45.5,37.1667 45.5,36.8333 45.5,36.5C 45.5,34.1667 45.5,31.8333 45.5,29.5C 45.8204,26.1016 45.487,22.7683 44.5,19.5C 43.2638,18.7542 41.9305,18.4208 40.5,18.5C 39.4982,21.7225 39.1649,25.7225 39.5,30.5C 39.1667,30.5 38.8333,30.5 38.5,30.5C 38.8266,25.7863 38.4933,21.1196 37.5,16.5C 35.4788,17.8545 33.8121,19.5212 32.5,21.5C 32.1667,21.5 31.8333,21.5 31.5,21.5C 31.7373,20.209 31.404,19.209 30.5,18.5C 30.5,17.8333 30.1667,17.5 29.5,17.5C 29.0825,16.7784 28.4158,16.2784 27.5,16C 22.5,15.3333 17.5,15.3333 12.5,16C 11.6634,17.0113 11.33,18.1779 11.5,19.5C 11.5,21.1667 11.5,22.8333 11.5,24.5C 11.5,25.8333 11.5,27.1667 11.5,28.5C 10.6773,25.023 10.1773,21.3563 10,17.5C 9.12526,20.2146 7.29192,21.5479 4.5,21.5C 4.5,19.1667 4.5,16.8333 4.5,14.5C 18.5409,15.1486 32.2076,14.4819 45.5,12.5C 45.5,11.8333 45.5,11.1667 45.5,10.5 Z"/></g>
<g><path style="opacity:1" fill="#eaeffb" d="M 29.5,17.5 C 23.9262,19.4533 17.9262,20.12 11.5,19.5C 11.33,18.1779 11.6634,17.0113 12.5,16C 17.5,15.3333 22.5,15.3333 27.5,16C 28.4158,16.2784 29.0825,16.7784 29.5,17.5 Z"/></g>
<g><path style="opacity:1" fill="#e1e8f9" d="M 38.5,30.5 C 38.1034,31.525 37.4368,31.6917 36.5,31C 33.038,28.7607 31.7046,25.594 32.5,21.5C 33.8121,19.5212 35.4788,17.8545 37.5,16.5C 38.4933,21.1196 38.8266,25.7863 38.5,30.5 Z"/></g>
<g><path style="opacity:0.863" fill="#c5c5c5" d="M 56.5,19.5 C 57.8333,20.5 57.8333,21.5 56.5,22.5C 55.448,22.3505 54.448,22.5172 53.5,23C 59.8475,25.8223 59.8475,28.6557 53.5,31.5C 51.7923,31.2972 50.459,30.4638 49.5,29C 51.0778,27.8595 52.7445,27.3595 54.5,27.5C 50.8512,26.4741 49.6846,24.1408 51,20.5C 52.6995,19.5939 54.5328,19.2606 56.5,19.5 Z"/></g>
<g><path style="opacity:0.392" fill="#6e6e6e" d="M 56.5,19.5 C 62.69,19.1771 68.69,19.5104 74.5,20.5C 71.6122,19.9898 69.2789,20.6565 67.5,22.5C 66.1667,22.5 64.8333,22.5 63.5,22.5C 64.2625,21.7321 65.2625,21.2321 66.5,21C 63.8333,20.3333 61.1667,20.3333 58.5,21C 59.7375,21.2321 60.7375,21.7321 61.5,22.5C 59.8333,22.5 58.1667,22.5 56.5,22.5C 57.8333,21.5 57.8333,20.5 56.5,19.5 Z"/></g>
<g><path style="opacity:0.392" fill="#777777" d="M 153.5,20.5 C 150.482,20.3354 147.482,20.502 144.5,21C 145.737,21.2321 146.737,21.7321 147.5,22.5C 144.833,22.5 142.167,22.5 139.5,22.5C 140.609,21.71 141.942,21.21 143.5,21C 141.527,20.5045 139.527,20.3379 137.5,20.5C 137.5,23.8333 137.5,27.1667 137.5,30.5C 136.518,27.0381 136.185,23.3714 136.5,19.5C 142.358,19.1778 148.025,19.5111 153.5,20.5 Z"/></g>
<g><path style="opacity:1" fill="#e9eefb" d="M 29.5,17.5 C 30.1667,17.5 30.5,17.8333 30.5,18.5C 30.5,19.8333 30.5,21.1667 30.5,22.5C 29.7109,22.7828 29.0442,23.2828 28.5,24C 22.8431,24.4994 17.1764,24.6661 11.5,24.5C 11.5,22.8333 11.5,21.1667 11.5,19.5C 17.9262,20.12 23.9262,19.4533 29.5,17.5 Z"/></g>
<g><path style="opacity:0.957" fill="#fefffe" d="M 63.5,22.5 C 62.8333,33.1667 62.1667,33.1667 61.5,22.5C 60.7375,21.7321 59.7375,21.2321 58.5,21C 61.1667,20.3333 63.8333,20.3333 66.5,21C 65.2625,21.2321 64.2625,21.7321 63.5,22.5 Z"/></g>
<g><path style="opacity:0.869" fill="#e3e3e3" d="M 74.5,20.5 C 75.0007,23.4217 75.334,26.4217 75.5,29.5C 75.5,29.8333 75.5,30.1667 75.5,30.5C 73.0274,30.9118 71.6941,29.9118 71.5,27.5C 71.44,26.9569 71.1067,26.6236 70.5,26.5C 69.5713,27.6888 69.238,29.0222 69.5,30.5C 67.631,28.3647 66.9644,25.6981 67.5,22.5C 69.2789,20.6565 71.6122,19.9898 74.5,20.5 Z M 70.5,22.5 C 73.0009,22.5109 73.1676,23.1776 71,24.5C 70.5357,23.9056 70.369,23.2389 70.5,22.5 Z"/></g>
<g><path style="opacity:0.365" fill="#787878" d="M 84.5,20.5 C 82.1667,20.5 79.8333,20.5 77.5,20.5C 77.5,23.8333 77.5,27.1667 77.5,30.5C 76.8333,30.5 76.1667,30.5 75.5,30.5C 75.5,30.1667 75.5,29.8333 75.5,29.5C 76.4794,26.3752 76.8128,23.0419 76.5,19.5C 79.3854,19.1936 82.0521,19.5269 84.5,20.5 Z"/></g>
<g><path style="opacity:0.844" fill="#f2f2f2" d="M 84.5,20.5 C 83.1979,22.0276 81.5313,23.0276 79.5,23.5C 81.2191,24.0221 82.5525,25.0221 83.5,26.5C 82.0222,26.238 80.6888,26.5713 79.5,27.5C 81.0453,28.4519 82.712,28.7852 84.5,28.5C 84.5,29.1667 84.5,29.8333 84.5,30.5C 82.1667,30.5 79.8333,30.5 77.5,30.5C 77.5,27.1667 77.5,23.8333 77.5,20.5C 79.8333,20.5 82.1667,20.5 84.5,20.5 Z"/></g>
<g><path style="opacity:0.872" fill="#d3d3d3" d="M 84.5,30.5 C 84.5,29.8333 84.5,29.1667 84.5,28.5C 86.2397,25.4551 88.073,22.4551 90,19.5C 90.772,19.6448 91.4387,19.9781 92,20.5C 93.4665,23.7584 94.6332,27.0917 95.5,30.5C 93.7231,30.2137 92.0564,29.5471 90.5,28.5C 88.6746,29.6511 86.6746,30.3178 84.5,30.5 Z"/></g>
<g><path style="opacity:0.911" fill="#e3e3e3" d="M 101.5,24.5 C 102.301,26.7929 102.968,26.4596 103.5,23.5C 103.557,22.391 103.89,21.391 104.5,20.5C 105.5,20.5 106.5,20.5 107.5,20.5C 107.5,23.8333 107.5,27.1667 107.5,30.5C 107.167,30.5 106.833,30.5 106.5,30.5C 106.663,28.1432 106.497,25.8098 106,23.5C 105.487,24.5266 104.987,25.5266 104.5,26.5C 104.833,29.5 103.5,30.8333 100.5,30.5C 99.5215,23.8781 98.5215,23.8781 97.5,30.5C 96.5108,26.8927 96.1774,23.226 96.5,19.5C 97.8333,19.5 99.1667,19.5 100.5,19.5C 100.629,21.2161 100.962,22.8828 101.5,24.5 Z"/></g>
<g><path style="opacity:0.384" fill="#7c7c7c" d="M 104.5,20.5 C 105.568,19.5655 106.901,19.2322 108.5,19.5C 108.815,23.3714 108.482,27.0381 107.5,30.5C 107.5,27.1667 107.5,23.8333 107.5,20.5C 106.5,20.5 105.5,20.5 104.5,20.5 Z"/></g>
<g><path style="opacity:0.867" fill="#e1e1e1" d="M 122.5,20.5 C 123.5,20.5 124.5,20.5 125.5,20.5C 125.5,23.8333 125.5,27.1667 125.5,30.5C 123.955,29.7703 123.122,28.437 123,26.5C 120.415,31.8141 118.415,31.4808 117,25.5C 116.798,27.2556 116.298,28.9223 115.5,30.5C 114.511,26.8927 114.177,23.226 114.5,19.5C 117.888,19.8739 119.722,21.8739 120,25.5C 120.757,23.6854 121.59,22.0188 122.5,20.5 Z"/></g>
<g><path style="opacity:0.271" fill="#7c7c7c" d="M 122.5,20.5 C 123.568,19.5655 124.901,19.2322 126.5,19.5C 126.815,23.3714 126.482,27.0381 125.5,30.5C 125.5,27.1667 125.5,23.8333 125.5,20.5C 124.5,20.5 123.5,20.5 122.5,20.5 Z"/></g>
<g><path style="opacity:0.365" fill="#7c7c7c" d="M 135.5,20.5 C 133.167,20.5 130.833,20.5 128.5,20.5C 128.5,23.8333 128.5,27.1667 128.5,30.5C 127.518,27.0381 127.185,23.3714 127.5,19.5C 130.385,19.1936 133.052,19.5269 135.5,20.5 Z"/></g>
<g><path style="opacity:0.844" fill="#f2f2f2" d="M 135.5,20.5 C 134.198,22.0276 132.531,23.0276 130.5,23.5C 132.219,24.0221 133.552,25.0221 134.5,26.5C 133.022,26.238 131.689,26.5713 130.5,27.5C 132.167,28.1667 133.833,28.8333 135.5,29.5C 133.257,30.4742 130.924,30.8076 128.5,30.5C 128.5,27.1667 128.5,23.8333 128.5,20.5C 130.833,20.5 133.167,20.5 135.5,20.5 Z"/></g>
<g><path style="opacity:0.882" fill="#f6f6f6" d="M 139.5,22.5 C 138.957,22.56 138.624,22.8933 138.5,23.5C 140.655,24.0014 142.322,25.0014 143.5,26.5C 142.022,26.238 140.689,26.5713 139.5,27.5C 141.167,28.1667 142.833,28.8333 144.5,29.5C 142.257,30.4742 139.924,30.8076 137.5,30.5C 137.5,27.1667 137.5,23.8333 137.5,20.5C 139.527,20.3379 141.527,20.5045 143.5,21C 141.942,21.21 140.609,21.71 139.5,22.5 Z"/></g>
<g><path style="opacity:0.816" fill="#dcdcdc" d="M 153.5,20.5 C 153.179,22.0481 152.179,22.7148 150.5,22.5C 150.5,25.1667 150.5,27.8333 150.5,30.5C 149.5,30.5 148.5,30.5 147.5,30.5C 147.5,27.8333 147.5,25.1667 147.5,22.5C 146.737,21.7321 145.737,21.2321 144.5,21C 147.482,20.502 150.482,20.3354 153.5,20.5 Z"/></g>
<g><path style="opacity:0.188" fill="#767676" d="M 79.5,23.5 C 81.1667,23.5 82.8333,23.5 84.5,23.5C 84.7373,24.791 84.404,25.791 83.5,26.5C 82.5525,25.0221 81.2191,24.0221 79.5,23.5 Z"/></g>
<g><path style="opacity:0.371" fill="#7e7f7e" d="M 106.5,30.5 C 105.833,29.1667 105.167,27.8333 104.5,26.5C 104.987,25.5266 105.487,24.5266 106,23.5C 106.497,25.8098 106.663,28.1432 106.5,30.5 Z"/></g>
<g><path style="opacity:0.188" fill="#767676" d="M 130.5,23.5 C 132.167,23.5 133.833,23.5 135.5,23.5C 135.737,24.791 135.404,25.791 134.5,26.5C 133.552,25.0221 132.219,24.0221 130.5,23.5 Z"/></g>
<g><path style="opacity:0.188" fill="#7f7f7f" d="M 139.5,22.5 C 140.919,23.4511 142.585,23.7845 144.5,23.5C 144.737,24.791 144.404,25.791 143.5,26.5C 142.322,25.0014 140.655,24.0014 138.5,23.5C 138.624,22.8933 138.957,22.56 139.5,22.5 Z"/></g>
<g><path style="opacity:0.314" fill="#646464" d="M 103.5,23.5 C 102.968,26.4596 102.301,26.7929 101.5,24.5C 102.167,24.1667 102.833,23.8333 103.5,23.5 Z"/></g>
<g><path style="opacity:1" fill="#d6e0f8" d="M 30.5,22.5 C 30.9167,25.0792 30.25,27.2458 28.5,29C 23.1771,29.4994 17.8437,29.666 12.5,29.5C 12.1667,29.5 11.8333,29.5 11.5,29.5C 11.5,29.1667 11.5,28.8333 11.5,28.5C 11.5,27.1667 11.5,25.8333 11.5,24.5C 17.1764,24.6661 22.8431,24.4994 28.5,24C 29.0442,23.2828 29.7109,22.7828 30.5,22.5 Z"/></g>
<g><path style="opacity:1" fill="#5497f8" d="M 40.5,18.5 C 41.9305,18.4208 43.2638,18.7542 44.5,19.5C 45.487,22.7683 45.8204,26.1016 45.5,29.5C 43.6096,29.7035 42.1096,29.0368 41,27.5C 40.502,24.5184 40.3354,21.5184 40.5,18.5 Z"/></g>
<g><path style="opacity:0.286" fill="#737373" d="M 71.5,27.5 C 70.8333,28.5 70.1667,29.5 69.5,30.5C 69.238,29.0222 69.5713,27.6888 70.5,26.5C 71.1067,26.6236 71.44,26.9569 71.5,27.5 Z"/></g>
<g><path style="opacity:1" fill="#4a90f4" d="M 11.5,28.5 C 11.5,28.8333 11.5,29.1667 11.5,29.5C 11.8333,30.8333 12.1667,32.1667 12.5,33.5C 11.2101,32.9423 10.3768,31.9423 10,30.5C 9.53566,31.0944 9.36899,31.7611 9.5,32.5C 7.83333,32.5 6.16667,32.5 4.5,32.5C 4.5,28.8333 4.5,25.1667 4.5,21.5C 7.29192,21.5479 9.12526,20.2146 10,17.5C 10.1773,21.3563 10.6773,25.023 11.5,28.5 Z"/></g>
<g><path style="opacity:1" fill="#b7c5ea" d="M 30.5,18.5 C 31.404,19.209 31.7373,20.209 31.5,21.5C 31.7839,24.7766 31.4505,27.9433 30.5,31C 24.8333,31.6667 19.1667,31.6667 13.5,31C 12.944,30.6174 12.6107,30.1174 12.5,29.5C 17.8437,29.666 23.1771,29.4994 28.5,29C 30.25,27.2458 30.9167,25.0792 30.5,22.5C 30.5,21.1667 30.5,19.8333 30.5,18.5 Z"/></g>
<g><path style="opacity:1" fill="#2d63be" d="M 31.5,21.5 C 31.8333,21.5 32.1667,21.5 32.5,21.5C 31.7046,25.594 33.038,28.7607 36.5,31C 37.4368,31.6917 38.1034,31.525 38.5,30.5C 38.8333,30.5 39.1667,30.5 39.5,30.5C 39.5,31.8333 39.5,33.1667 39.5,34.5C 36.6481,33.7417 33.9815,33.7417 31.5,34.5C 25.1082,34.7513 18.7748,34.418 12.5,33.5C 12.1667,32.1667 11.8333,30.8333 11.5,29.5C 11.8333,29.5 12.1667,29.5 12.5,29.5C 12.6107,30.1174 12.944,30.6174 13.5,31C 19.1667,31.6667 24.8333,31.6667 30.5,31C 31.4505,27.9433 31.7839,24.7766 31.5,21.5 Z"/></g>
<g><path style="opacity:1" fill="#3585f1" d="M 40.5,18.5 C 40.3354,21.5184 40.502,24.5184 41,27.5C 42.1096,29.0368 43.6096,29.7035 45.5,29.5C 45.5,31.8333 45.5,34.1667 45.5,36.5C 40.8333,36.5 36.1667,36.5 31.5,36.5C 31.5,35.8333 31.5,35.1667 31.5,34.5C 33.9815,33.7417 36.6481,33.7417 39.5,34.5C 39.5,33.1667 39.5,31.8333 39.5,30.5C 39.1649,25.7225 39.4982,21.7225 40.5,18.5 Z"/></g>
<g><path style="opacity:1" fill="#2b7ce9" d="M 12.5,33.5 C 18.7748,34.418 25.1082,34.7513 31.5,34.5C 31.5,35.1667 31.5,35.8333 31.5,36.5C 25.1579,36.6662 18.8246,36.4995 12.5,36C 11.2899,34.9609 10.2899,33.7942 9.5,32.5C 9.36899,31.7611 9.53566,31.0944 10,30.5C 10.3768,31.9423 11.2101,32.9423 12.5,33.5 Z"/></g>
<g><path style="opacity:1" fill="#2982f4" d="M 4.5,32.5 C 6.16667,32.5 7.83333,32.5 9.5,32.5C 10.2899,33.7942 11.2899,34.9609 12.5,36C 18.8246,36.4995 25.1579,36.6662 31.5,36.5C 36.1667,36.5 40.8333,36.5 45.5,36.5C 45.5,36.8333 45.5,37.1667 45.5,37.5C 45.7373,38.791 45.404,39.791 44.5,40.5C 44.5,40.1667 44.5,39.8333 44.5,39.5C 42.1048,38.2342 39.4381,37.5676 36.5,37.5C 27.3317,38.8168 18.165,38.8168 9,37.5C 7.31887,37.6083 6.1522,38.2749 5.5,39.5C 4.53178,37.3926 4.19845,35.0593 4.5,32.5 Z"/></g>
<g><path style="opacity:1" fill="#2382f9" d="M 44.5,39.5 C 31.5,39.5 18.5,39.5 5.5,39.5C 6.1522,38.2749 7.31887,37.6083 9,37.5C 18.165,38.8168 27.3317,38.8168 36.5,37.5C 39.4381,37.5676 42.1048,38.2342 44.5,39.5 Z"/></g>
<g><path style="opacity:0.995" fill="#1c7cf5" d="M 5.5,39.5 C 18.5,39.5 31.5,39.5 44.5,39.5C 44.5,39.8333 44.5,40.1667 44.5,40.5C 44.1667,41.5 43.5,42.1667 42.5,42.5C 30.8333,41.1667 19.1667,41.1667 7.5,42.5C 6.09368,42.0269 5.42702,41.0269 5.5,39.5 Z"/></g>
<g><path style="opacity:0.995" fill="#126ddd" d="M 42.5,42.5 C 41.3192,44.0672 39.6526,44.9005 37.5,45C 29.1667,45.6667 20.8333,45.6667 12.5,45C 10.5087,44.6264 8.84203,43.793 7.5,42.5C 19.1667,41.1667 30.8333,41.1667 42.5,42.5 Z"/></g>
</svg>
